<?xml version="1.0" encoding="UTF-8" standalone="no"?>
<svg
   width="20.000099"
   height="20.016653"
   viewBox="0 0 20.000099 20.016653"
   fill="none"
   version="1.1"
   id="svg1"
   xmlns="http://www.w3.org/2000/svg"
   xmlns:svg="http://www.w3.org/2000/svg">
  <defs
     id="defs1" />
  <path
     d="M 17.0712,2.9313627 C 15.1824,1.0410627 12.6711,0 10.0001,0 7.32884,0 4.81769,1.0410627 2.92894,2.9313627 1.0402,4.8216727 0,7.3349027 0,10.008353 c 0,2.6733 1.0402,5.1866 2.92894,7.077 1.88875,1.8903 4.3999,2.9313 7.07116,2.9313 2.671,0 5.1823,-1.041 7.0711,-2.9313 1.8887,-1.8904 2.9289,-4.4037 2.9289,-7.077 0,-2.6734503 -1.0402,-5.1866803 -2.9289,-7.0769903 z M 5.01331,17.295153 c 0.41824,-2.4102 2.50505,-4.1879 4.98679,-4.1879 2.4818,0 4.5685,1.7777 4.9867,4.1879 -1.4198,0.9763 -3.1377,1.5487 -4.9867,1.5487 -1.84911,0 -3.56696,-0.5724 -4.98679,-1.5487 z M 6.82042,8.7521027 c 0,-1.75485 1.4264,-3.18228 3.17968,-3.18228 1.7532,0 3.1796,1.42758 3.1796,3.18228 0,1.7546503 -1.4264,3.1822503 -3.1796,3.1822503 -1.75328,0 -3.17968,-1.4276 -3.17968,-3.1822503 z m 9.18138,7.7295503 c -0.3154,-1.122 -0.9417,-2.14 -1.8197,-2.9352 -0.5387,-0.4879 -1.1518,-0.8729 -1.811,-1.1443 1.1915,-0.7778 1.9806,-2.1234 1.9806,-3.6500503 0,-2.40145 -1.9522,-4.35513 -4.3516,-4.35513 -2.3995,0 -4.35157,1.95368 -4.35157,4.35513 0,1.5266503 0.78919,2.8722503 1.98045,3.6500503 -0.65903,0.2714 -1.27228,0.6562 -1.81092,1.1441 -0.87784,0.7952 -1.50437,1.8132 -1.81978,2.9352 -1.73722,-1.6146 -2.8264,-3.9188 -2.8264,-6.4731 0,-4.8719303 3.96029,-8.8355003 8.82822,-8.8355003 4.8678,0 8.8281,3.96357 8.8281,8.8355003 0,2.5544 -1.0891,4.8586 -2.8264,6.4733 z"
     fill="#3b4157"
     id="path1" />
</svg>
